<svg xmlns="http://www.w3.org/2000/svg" viewBox="0 0 512 512" fill="none">
  <rect width="512" height="512" rx="100" fill="#2563eb"/>
  <path d="M256 96C185.3 96 128 153.3 128 224V352C128 387.3 156.7 416 192 416H320C355.3 416 384 387.3 384 352V224C384 153.3 326.7 96 256 96Z" fill="white"/>
  <circle cx="256" cy="240" r="48" fill="#2563eb"/>
  <path d="M208 320H304C313.9 320 322 328.1 322 338C322 347.9 313.9 356 304 356H208C198.1 356 190 347.9 190 338C190 328.1 198.1 320 208 320Z" fill="#2563eb"/>
</svg>
